#!OML:ASF E:\acrobat2\Project_11_07_03\Capture day 1\Session 1\Acrobat.ASF
:FULLY-SPECIFIED
:DEGREES
318
root 9.06287 17.6344 -26.6919 35.0377 -69.4892 -26.2979
lowerback 2.29192 2.41564 5.16166
upperback -2.9477 3.42509 -0.366993
thorax -4.01292 1.53482 -3.45555
lowerneck -2.22896 11.374 5.45788
upperneck -2.77957 14.9656 -13.7657
head 1.0249 7.41384 -4.56169
rclavicle -5.51627e-014 2.38542e-015
rhumerus -4.29923 -53.6868 -1.42445
rradius 22.1864
rwrist -18.2645
rhand -14.5512 -51.5861
rfingers 7.12502
rthumb 11.5976 -81.2452
lclavicle -5.51627e-014 2.38542e-015
lhumerus 15.7106 19.1719 0.685364
lradius 21.8248
lwrist 9.02471
lhand -17.942 -7.01075
lfingers 7.12502
lthumb 8.32627 22.8052
rfemur 2.95599 3.61181 17.5447
rtibia 0.727279
rfoot -29.0908 -31.6259
rtoes -0.633042
lfemur -31.8797 20.2313 6.03502
ltibia 40.7955
lfoot -21.7427 7.2109
ltoes 31.8181
319
root 9.04921 17.6087 -26.6258 35.82 -68.901 -27.0449
lowerback 2.32637 2.48493 5.18296
upperback -2.93358 3.51596 -0.518018
thorax -3.99867 1.57839 -3.62938
lowerneck -2.37943 11.386 5.47747
upperneck -2.89811 14.9649 -13.6983
head 1.01025 7.41247 -4.54011
rclavicle 4.87022e-015 3.89618e-014
rhumerus -3.07759 -54.8389 -1.9952
rradius 22.094
rwrist -17.197
rhand -14.9529 -51.4771
rfingers 7.12502
rthumb 11.2102 -81.1576
lclavicle 4.87022e-015 3.89618e-014
lhumerus 16.3814 20.5052 1.29289
lradius 21.6413
lwrist 7.64171
lhand -17.9456 -6.98066
lfingers 7.12502
lthumb 8.32287 22.8354
rfemur 2.80376 2.55534 17.7726
rtibia 1.11574
rfoot -28.3219 -31.2649
rtoes -2.59983
lfemur -32.3567 20.6372 6.48788
ltibia 40.9907
lfoot -21.4936 8.01805
ltoes 33.5181
320
root 9.03476 17.5825 -26.5586 36.477 -68.2831 -27.7042
lowerback 2.43799 2.56436 5.21957
upperback -2.93853 3.62434 -0.71784
thorax -4.04189 1.62727 -3.86826
lowerneck -2.43915 11.3334 5.60458
upperneck -3.07634 14.8728 -13.6011
head 0.960298 7.3705 -4.53842
rclavicle -5.397e-014 1.90833e-014
rhumerus -1.26932 -57.9855 -3.16229
rradius 21.5731
rwrist -13.9352
rhand -14.4844 -51.3218
rfingers 7.12502
rthumb 11.662 -80.9772
lclavicle -5.397e-014 1.90833e-014
lhumerus 16.9345 20.9542 1.46119
lradius 21.5562
lwrist 7.0348
lhand -17.9247 -7.1089
lfingers 7.12502
lthumb 8.34296 22.7063
rfemur 2.73201 1.73279 18.0421
rtibia 1.4916
rfoot -28.0159 -30.8754
rtoes -3.61854
lfemur -32.8235 20.884 6.94888
ltibia 41.2013
lfoot -21.3527 8.68713
ltoes 35.5113
321
root 9.02057 17.5563 -26.4909 36.7957 -67.589 -28.0228
lowerback 2.56024 2.55754 5.118
upperback -2.91638 3.61278 -0.86246
thorax -4.08585 1.62196 -3.96722
lowerneck -2.48646 11.3377 5.69969
upperneck -3.24453 14.8591 -13.5561
head 0.92062 7.36728 -4.54291
rclavicle -4.55217e-014 3.97569e-014
rhumerus 0.168944 -58.6621 -3.87215
rradius 21.4254
rwrist -13.1722
rhand -12.9652 -51.551
rfingers 7.12502
rthumb 13.1268 -81.1179
lclavicle -4.55217e-014 3.97569e-014
lhumerus 16.698 19.5641 0.487394
lradius 21.8462
lwrist 8.63848
lhand -18.2222 -6.85508
lfingers 7.12502
lthumb 8.05588 22.9714
rfemur 2.70438 1.03582 18.2797
rtibia 1.85375
rfoot -27.9555 -30.7116
rtoes -4.79798
lfemur -33.3629 21.0746 7.28959
ltibia 41.3648
lfoot -21.4125 8.91259
ltoes 38.3405
322
root 9.00722 17.5283 -26.4264 37.0683 -66.8853 -28.2793
lowerback 2.68724 2.503 4.89636
upperback -2.86743 3.53332 -0.941107
thorax -4.12215 1.58828 -3.92658
lowerneck -2.84305 11.4368 5.86103
upperneck -2.97958 15.0071 -13.7224
head 1.09644 7.41809 -4.5733
rclavicle -2.54444e-014 3.18055e-014
rhumerus 1.3217 -57.3387 -4.05888
rradius 21.5127
rwrist -14.5669
rhand -14.7029 -50.569
rfingers 7.12502
rthumb 11.4513 -80.2363
lclavicle -2.54444e-014 3.18055e-014
lhumerus 15.8465 16.4342 -1.48967
lradius 22.4444
lwrist 12.3307
lhand -18.8318 -6.42723
lfingers 7.12502
lthumb 7.46755 23.421
rfemur 2.67504 0.395923 18.5139
rtibia 2.18468
rfoot -27.9566 -30.6135
rtoes -5.86328
lfemur -34.0079 21.5118 7.54967
ltibia 41.6625
lfoot -21.5482 8.6816
ltoes 40.3818
323
root 8.99545 17.4973 -26.364 37.558 -66.1885 -28.6813
lowerback 2.77962 2.47081 4.69624
upperback -2.83487 3.48248 -1.01946
thorax -4.15167 1.56797 -3.89744
lowerneck -3.23057 11.4452 5.91914
upperneck -2.73346 15.0307 -13.8555
head 1.24962 7.40638 -4.58591
rclavicle -8.32908e-014 1.59028e-015
rhumerus 3.3636 -58.2825 -5.22648
rradius 21.4175
rwrist -13.7137
rhand -15.273 -49.8834
rfingers 7.12502
rthumb 10.9015 -79.5805
lclavicle -8.32908e-014 1.59028e-015
lhumerus 15.5479 14.942 -2.45223
lradius 22.7423
lwrist 14.3436
lhand -19.4642 -6.27575
lfingers 7.12502
lthumb 6.85703 23.5932
rfemur 2.53944 -0.076548 18.8496
rtibia 2.53735
rfoot -28.2043 -30.4392
rtoes -5.87544
lfemur -34.8648 22.1975 7.74703
ltibia 42.3465
lfoot -21.6572 8.29282
ltoes 39.7934
